<?xml version="1.0" encoding="UTF-8"?>
<svg id="Logo" xmlns="http://www.w3.org/2000/svg" viewBox="0 0 500 500">
  <path d="M276.1301,498.6103c-78.0093,8.1991-151.4031-20.4131-202.8916-71.8356h.0001s-.0011-.0124-.0011-.0124c-24.1423-24.1425-33.0264-73.2984-8.8841-97.4409,24.0079-24.0079,71.733-14.1284,95.9065,9.6115h0c26.0413,26.2448,63.3151,40.8785,102.946,36.7131,69.3925-7.2935,119.7337-69.4597,112.4403-138.8521-5.539-52.6998-42.7267-94.4112-90.6924-108.2348,21.1683-17.6569,33.4592-45.207,30.3678-74.6202-2.0752-19.7439-10.7547-37.2255-23.6096-50.4783,107.8877,18.1927,194.9028,106.2779,206.8984,220.4093,14.4313,137.3037-85.1766,260.3092-222.4803,274.7404Z" fill="#fff" stroke-width="0"/>
  <path d="M73.2376,339.3346c24.0078-24.0078,62.8488-24.1415,87.0222-.4015-19.5561-19.7089-32.7778-45.9657-35.9059-75.7271-7.2935-69.3924,43.0477-131.5585,112.4401-138.852,33.9556-3.5689,58.5889-33.9886,55.0201-67.9442-3.5689-33.9556-33.9886-58.5889-67.9441-55.0201C86.5664,15.8208-13.0416,138.8262,1.3896,276.1299c6.2321,59.2945,32.7128,111.5589,71.8489,150.6449l-.001-.0124c-24.1425-24.1425-24.1425-63.2853,0-87.4278Z" fill="#8de23c" stroke-width="0"/>
</svg>